<svg width="40" height="26" viewBox="0 0 40 26" fill="none" xmlns="http://www.w3.org/2000/svg">
<path d="M0.576172 26V0.40625H7.20312C8.90234 0.40625 10.4375 0.699219 11.8086 1.28516C13.1914 1.85938 14.3691 2.66797 15.3418 3.71094C16.3262 4.74219 17.082 5.97852 17.6094 7.41992C18.1484 8.86133 18.418 10.4434 18.418 12.166V14.2754C18.418 15.998 18.1484 17.5801 17.6094 19.0215C17.082 20.4512 16.3379 21.6875 15.377 22.7305C14.416 23.7617 13.2617 24.5645 11.9141 25.1387C10.5664 25.7129 9.07812 26 7.44922 26H0.576172ZM5.55078 4.41406V22.0273H7.44922C8.375 22.0273 9.20117 21.8516 9.92773 21.5C10.666 21.1484 11.2871 20.6387 11.791 19.9707C12.3066 19.3027 12.6992 18.4941 12.9688 17.5449C13.2383 16.584 13.373 15.4941 13.373 14.2754V12.1309C13.373 10.9824 13.2383 9.93945 12.9688 9.00195C12.7109 8.05273 12.3184 7.23828 11.791 6.55859C11.2754 5.87891 10.6309 5.35156 9.85742 4.97656C9.0957 4.60156 8.21094 4.41406 7.20312 4.41406H5.55078ZM39.1777 26H34.2559L27.1367 9.49414V26H22.1621V0.40625H27.1367L34.2031 16.8418L34.2207 0.40625H39.1777V26Z" fill="black"/>
</svg>
