<svg width="68" height="18" viewBox="0 0 68 18" fill="none" xmlns="http://www.w3.org/2000/svg">
<path d="M0.269531 15V0.78125H4.64453C5.89453 0.78125 7.01107 1.06445 7.99414 1.63086C8.98372 2.19076 9.75521 2.99154 10.3086 4.0332C10.862 5.06836 11.1387 6.24674 11.1387 7.56836V8.22266C11.1387 9.54427 10.8652 10.7194 10.3184 11.748C9.77799 12.7767 9.01302 13.5742 8.02344 14.1406C7.03385 14.707 5.91732 14.9935 4.67383 15H0.269531ZM3.19922 3.1543V12.6465H4.61523C5.76107 12.6465 6.63672 12.2721 7.24219 11.5234C7.84766 10.7747 8.1569 9.70378 8.16992 8.31055V7.55859C8.16992 6.11328 7.87044 5.01953 7.27148 4.27734C6.67253 3.52865 5.79688 3.1543 4.64453 3.1543H3.19922ZM25.8945 17.207H16.998V15H25.8945V17.207ZM34.8203 17.207H25.9238V15H34.8203V17.207ZM43.7461 17.207H34.8496V15H43.7461V17.207ZM61.5781 15H58.6484L52.9453 5.64453V15H50.0156V0.78125H52.9453L58.6582 10.1562V0.78125H61.5781V15ZM64.0977 13.6133C64.0977 13.1641 64.2474 12.7995 64.5469 12.5195C64.8529 12.2396 65.2337 12.0996 65.6895 12.0996C66.1517 12.0996 66.5326 12.2396 66.832 12.5195C67.138 12.7995 67.291 13.1641 67.291 13.6133C67.291 14.056 67.1413 14.4173 66.8418 14.6973C66.5423 14.9707 66.1582 15.1074 65.6895 15.1074C65.2272 15.1074 64.8464 14.9707 64.5469 14.6973C64.2474 14.4173 64.0977 14.056 64.0977 13.6133Z" fill="#EDEDED"/>
</svg>
